#!OML:ASF E:\inclinewalkrobotboard\Project 1\Capture day 1\Session 1\subject1.ASF
:FULLY-SPECIFIED
:DEGREES
417
root 9.15097 17.2475 -5.97911 -162.077 8.03265 185.367
lowerback -4.81373 4.29932 -12.1274
upperback 2.04727 6.72269 -1.41083
thorax 3.67344 3.09057 5.7292
lowerneck -8.97902 -2.78052 -5.40479
upperneck 19.0088 -7.0809 14.0075
head 8.02267 -3.00778 4.82804
rclavicle 2.46493e-014 -6.52014e-014
rhumerus -20.3329 -12.7005 -76.3308
rradius 21.3993
rwrist 23.1861
rhand -8.75551 -32.5022
rfingers 7.12502
rthumb 17.1818 -61.7626
lclavicle 2.46493e-014 -6.52014e-014
lhumerus -32.6994 16.025 63.8105
lradius 10.7035
lwrist -45.621
lhand -25.4398 -26.0742
lfingers 7.12502
lthumb 1.08676 3.90281
rfemur -7.51727 10.8318 8.53607
rtibia 12.6537
rfoot -17.5233 -4.57501
rtoes -37.3113
lfemur -22.2185 -8.55886 -6.45064
ltibia 9.35555
lfoot -17.7167 13.0492
ltoes -55.0308
418
root 9.06501 17.2621 -6.07076 -162.021 8.02323 185.554
lowerback -4.87383 4.16861 -12.0759
upperback 2.16499 6.54914 -1.22657
thorax 3.84756 2.98476 5.90103
lowerneck -9.02662 -2.68816 -5.3295
upperneck 19.2291 -7.02805 14.0063
head 8.09599 -2.98064 4.82302
rclavicle 2.0276e-014 -5.24792e-014
rhumerus -21.5953 -12.8745 -75.2315
rradius 21.5156
rwrist 23.4543
rhand -8.40622 -32.5272
rfingers 7.12502
rthumb 17.5179 -61.7579
lclavicle 2.0276e-014 -5.24792e-014
lhumerus -31.798 14.8484 64.7039
lradius 11.0124
lwrist -43.3192
lhand -25.7617 -25.5668
lfingers 7.12502
lthumb 0.775926 4.41155
rfemur -8.47595 10.7104 8.3472
rtibia 12.9743
rfoot -17.4222 -4.56136
rtoes -35.9021
lfemur -21.9483 -8.38885 -6.76736
ltibia 9.41147
lfoot -17.9206 12.6762
ltoes -54.7303
419
root 8.99247 17.282 -6.14504 -161.916 7.69008 185.796
lowerback -4.68931 3.95076 -12.0393
upperback 2.17571 6.20417 -0.933212
thorax 3.7875 2.80947 6.15966
lowerneck -9.11892 -2.61354 -5.32218
upperneck 19.48 -6.98302 13.9822
head 8.19001 -2.95987 4.82163
rclavicle -1.19271e-015 4.13472e-014
rhumerus -23.0276 -13.0907 -74.1472
rradius 21.6884
rwrist 23.4081
rhand -8.12744 -32.9093
rfingers 7.12502
rthumb 17.7862 -62.1159
lclavicle -1.19271e-015 4.13472e-014
lhumerus -30.911 14.4796 65.2556
lradius 11.1406
lwrist -41.5434
lhand -25.5295 -24.2002
lfingers 7.12502
lthumb 1.00016 5.7772
rfemur -9.43161 10.7449 8.40169
rtibia 13.1792
rfoot -17.4751 -5.01131
rtoes -35.1099
lfemur -22.0843 -8.13358 -6.90122
ltibia 9.85838
lfoot -18.0259 11.9853
ltoes -54.4484
420
root 8.90835 17.3016 -6.26599 -162.136 7.93298 186.231
lowerback -4.94044 3.93507 -11.6253
upperback 2.37706 6.18625 -0.689613
thorax 4.15833 2.77266 6.22327
lowerneck -8.97226 -2.54531 -5.2365
upperneck 19.5176 -6.89458 13.8476
head 8.1572 -2.93279 4.77139
rclavicle 3.22031e-014 2.06736e-014
rhumerus -24.5924 -13.3191 -73.1628
rradius 21.7702
rwrist 23.2236
rhand -8.28509 -32.981
rfingers 7.12502
rthumb 17.6345 -62.2013
lclavicle 3.22031e-014 2.06736e-014
lhumerus -30.0636 13.1728 66.1856
lradius 11.5171
lwrist -39.1998
lhand -26.2346 -24.9357
lfingers 7.12502
lthumb 0.319177 5.04381
rfemur -9.98212 10.9447 8.44426
rtibia 13.0531
rfoot -17.4181 -4.94274
rtoes -34.6495
lfemur -21.0697 -8.69179 -6.94589
ltibia 9.5096
lfoot -18.7507 12.3865
ltoes -54.0623
421
root 8.83916 17.317 -6.35218 -162.167 7.53631 186.344
lowerback -4.85582 3.66172 -11.494
upperback 2.4143 5.78608 -0.46058
thorax 4.21201 2.56714 6.37013
lowerneck -8.95228 -2.48928 -4.96207
upperneck 19.6045 -6.806 13.5126
head 8.15263 -2.89889 4.61889
rclavicle -3.45885e-014 3.18055e-015
rhumerus -26.2053 -13.399 -72.3036
rradius 21.8559
rwrist 23.0966
rhand -8.60678 -32.7609
rfingers 7.12502
rthumb 17.3249 -62.0088
lclavicle -3.45885e-014 3.18055e-015
lhumerus -29.2784 10.6916 67.5174
lradius 12.0876
lwrist -36.7186
lhand -26.0843 -24.0786
lfingers 7.12502
lthumb 0.464346 5.90063
rfemur -10.6855 10.6149 8.31539
rtibia 12.8795
rfoot -17.2554 -5.12193
rtoes -34.8277
lfemur -20.8781 -8.96152 -7.22472
ltibia 9.61459
lfoot -18.3826 12.8389
ltoes -55.8628
422
root 8.77805 17.327 -6.43648 -162.284 7.29618 186.468
lowerback -4.68401 3.40565 -11.4548
upperback 2.44432 5.40155 -0.193424
thorax 4.19616 2.37089 6.60089
lowerneck -9.20798 -2.54989 -4.78668
upperneck 19.8375 -6.90949 13.2712
head 8.27559 -2.94246 4.49511
rclavicle 3.45885e-014 -5.40694e-014
rhumerus -27.8551 -13.5304 -71.4226
rradius 21.9933
rwrist 23.1073
rhand -8.41423 -32.6274
rfingers 7.12502
rthumb 17.5102 -61.8589
lclavicle 3.45885e-014 -5.40694e-014
lhumerus -28.5717 8.13694 68.8387
lradius 12.7089
lwrist -34.9004
lhand -27.297 -24.8444
lfingers 7.12502
lthumb -0.706938 5.13416
rfemur -11.3898 10.3028 8.21539
rtibia 12.8073
rfoot -17.0485 -5.08156
rtoes -34.9315
lfemur -20.4955 -8.93985 -7.50935
ltibia 9.63113
lfoot -17.9192 13.161
ltoes -57.7963
423
root 8.71815 17.3365 -6.52969 -162.423 7.27664 186.726
lowerback -4.74661 3.22924 -11.2158
upperback 2.54188 5.14753 0.0558072
thorax 4.37971 2.2302 6.73077
lowerneck -9.34921 -2.51839 -4.64036
upperneck 20.0001 -6.90533 13.1538
head 8.3476 -2.93647 4.43022
rclavicle -4.37326e-014 1.59028e-014
rhumerus -29.4598 -14.3286 -70.4338
rradius 22.0344
rwrist 23.6481
rhand -8.00779 -32.5515
rfingers 7.12502
rthumb 17.9013 -61.7476
lclavicle -4.37326e-014 1.59028e-014
lhumerus -27.6194 6.28056 69.9128
lradius 13.295
lwrist -33.966
lhand -28.0328 -25.0249
lfingers 7.12502
lthumb -1.41759 4.95011
rfemur -12.2395 10.0944 8.17124
rtibia 12.9062
rfoot -16.8461 -4.80371
rtoes -35.1834
lfemur -19.9934 -8.87432 -7.62971
ltibia 9.67735
lfoot -17.9096 13.2477
ltoes -58.6899
424
root 8.6647 17.347 -6.62387 -162.569 7.26837 186.985
lowerback -4.82846 3.06895 -10.9248
upperback 2.61466 4.91446 0.2572
thorax 4.55201 2.10478 6.78097
lowerneck -9.38802 -2.4525 -4.36624
upperneck 20.0904 -6.86414 13.0123
head 8.36819 -2.91289 4.33834
rclavicle -3.97569e-016 -1.59028e-014
rhumerus -31.1302 -15.5791 -69.4067
rradius 21.996
rwrist 24.5417
rhand -7.81952 -32.327
rfingers 7.12502
rthumb 18.0825 -61.5064
lclavicle -3.97569e-016 -1.59028e-014
lhumerus -26.6772 4.47618 70.8509
lradius 14.0846
lwrist -33.1535
lhand -28.3201 -24.9739
lfingers 7.12502
lthumb -1.69502 4.99909
rfemur -13.1427 9.85731 8.17258
rtibia 13.0357
rfoot -16.5409 -4.57123
rtoes -36.3177
lfemur -19.4597 -8.78147 -7.74885
ltibia 9.7325
lfoot -17.9464 13.2585
ltoes -59.2513
425
root 8.6188 17.3534 -6.7162 -162.809 7.278 186.916
lowerback -4.75806 2.81662 -11.0282
upperback 2.6277 4.56612 0.435462
thorax 4.57249 1.92292 7.00556
lowerneck -9.42546 -2.3335 -4.19794
upperneck 20.3365 -6.7406 12.7924
head 8.43232 -2.86385 4.24959
rclavicle -1.19271e-014 -7.95139e-015
rhumerus -32.9137 -16.589 -68.3776
rradius 22.0256
rwrist 25.2234
rhand -7.37279 -32.2325
rfingers 7.12502
rthumb 18.5123 -61.3716
lclavicle -1.19271e-014 -7.95139e-015
lhumerus -26.1916 2.51738 71.8034
lradius 15.222
lwrist -31.8588
lhand -28.171 -24.5596
lfingers 7.12502
lthumb -1.55103 5.41446
rfemur -13.9246 9.77271 7.86168
rtibia 13.0611
rfoot -16.2193 -4.44039
rtoes -36.9097
lfemur -18.7938 -8.73847 -8.28763
ltibia 9.67618
lfoot -17.8575 13.3228
ltoes -59.9964
426
root 8.57417 17.3575 -6.8194 -163.267 7.62371 186.661
lowerback -4.69859 2.62713 -11.3188
upperback 2.72532 4.32931 0.55985
thorax 4.66413 1.78507 7.28885
lowerneck -9.58383 -2.20285 -4.14721
upperneck 20.7385 -6.60741 12.5811
head 8.57485 -2.81211 4.18684
rclavicle -1.86858e-014 4.21423e-014
rhumerus -34.7044 -17.2855 -67.4312
rradius 22.1021
rwrist 25.1863
rhand -7.09554 -32.4702
rfingers 7.12502
rthumb 18.7789 -61.5837
lclavicle -1.86858e-014 4.21423e-014
lhumerus -25.7271 0.293766 72.907
lradius 16.3853
lwrist -29.633
lhand -27.8921 -23.943
lfingers 7.12502
lthumb -1.28167 6.0329
rfemur -14.5811 10.1977 7.24187
rtibia 13.0358
rfoot -15.8503 -4.43617
rtoes -36.0866
lfemur -17.7331 -9.06601 -9.07652
ltibia 9.48083
lfoot -18.3167 13.619
ltoes -60.069
427
root 8.54555 17.3596 -6.89529 -163.3 7.59069 186.409
lowerback -4.64383 2.30456 -11.6501
upperback 2.59574 3.8939 0.703553
thorax 4.55698 1.56583 7.59688
lowerneck -9.82917 -3.88516 -3.71794
upperneck 21.7183 -6.04968 11.7543
head 8.8812 -1.47421 4.07085
rclavicle -8.74653e-015 -2.54444e-014
rhumerus -36.4932 -17.8616 -66.6282
rradius 22.1063
rwrist 24.6134
rhand -7.47603 -32.6891
rfingers 7.12502
rthumb 18.4129 -61.8376
lclavicle -8.74653e-015 -2.54444e-014
lhumerus -25.1581 -2.42918 74.0751
lradius 17.5002
lwrist -26.3768
lhand -27.6426 -23.2262
lfingers 7.12502
lthumb -1.04073 6.75101
rfemur -15.8716 10.3753 6.68654
rtibia 13.3091
rfoot -15.4628 -4.75783
rtoes -33.3813
lfemur -17.649 -8.88313 -9.60931
ltibia 9.82915
lfoot -18.4148 13.3863
ltoes -60.4349
428
root 8.51372 17.3656 -6.99425 -163.678 7.71197 186.35
lowerback -4.61832 2.0314 -11.6603
upperback 2.66158 3.52337 0.858129
thorax 4.68313 1.36744 7.74923
lowerneck -10.1065 -3.82267 -3.51665
upperneck 22.304 -5.94677 11.3917
head 9.10854 -1.40799 3.93713
rclavicle -2.3059e-014 2.54444e-014
rhumerus -38.1699 -18.5783 -65.8537
rradius 22.0657
rwrist 24.2895
rhand -7.28184 -32.5222
rfingers 7.12502
rthumb 18.5997 -61.653
lclavicle -2.3059e-014 2.54444e-014
lhumerus -24.59 -4.64086 74.979
lradius 18.6304
lwrist -23.7049
lhand -27.7582 -22.8437
lfingers 7.12502
lthumb -1.15233 7.1329
rfemur -16.7503 10.2861 6.41902
rtibia 13.5699
rfoot -14.9969 -4.79835
rtoes -23.9117
lfemur -16.7288 -8.8728 -10.0641
ltibia 9.6357
lfoot -18.5555 13.4093
ltoes -60.7689
429
root 8.48874 17.3654 -7.08973 -164.026 7.59622 186.462
lowerback -4.64848 1.71943 -11.387
upperback 2.78648 3.09087 1.04037
thorax 4.92982 1.137 7.77068
lowerneck -10.4539 -3.72762 -3.22296
upperneck 22.8684 -5.81373 11.0307
head 9.33975 -1.31964 3.79028
rclavicle 1.07344e-014 7.15625e-015
rhumerus -39.8498 -19.4714 -65.054
rradius 22.1459
rwrist 24.3189
rhand -6.40465 -32.2395
rfingers 7.12502
rthumb 19.4433 -61.2874
lclavicle 1.07344e-014 7.15625e-015
lhumerus -23.8984 -6.08117 75.6052
lradius 19.7985
lwrist -22.0885
lhand -27.5999 -22.721
lfingers 7.12502
lthumb -0.999481 7.25642
rfemur -17.5374 10.1331 6.46035
rtibia 13.6948
rfoot -14.5015 -5.13513
rtoes -30.2691
lfemur -15.918 -8.80952 -10.2436
ltibia 9.5258
lfoot -18.7769 13.0631
ltoes -60.5455
430
root 8.46533 17.3645 -7.17913 -164.452 7.00194 186.353
lowerback -4.40266 1.28063 -11.1978
upperback 2.85482 2.45731 1.21845
thorax 4.99818 0.818904 7.80447
lowerneck -10.6983 -3.6243 -2.96775
upperneck 23.3807 -5.65764 10.6966
head 9.53565 -1.22563 3.66152
rclavicle 2.78299e-015 -7.95139e-016
rhumerus -41.6796 -20.1793 -64.2499
rradius 22.3077
rwrist 24.4207
rhand -6.28053 -32.0354
rfingers 7.12502
rthumb 19.5627 -61.0712
lclavicle 2.78299e-015 -7.95139e-016
lhumerus -23.0483 -7.19175 76.1609
lradius 20.8927
lwrist -20.7673
lhand -26.6187 -22.2816
lfingers 7.12502
lthumb -0.0518395 7.69813
rfemur -18.0701 9.79604 6.32725
rtibia 13.6797
rfoot -14.0129 -5.58657
rtoes -32.5118
lfemur -15.3406 -9.11337 -10.6022
ltibia 9.69674
lfoot -18.9332 12.6461
ltoes -60.4835
431
root 8.43936 17.364 -7.28803 -164.981 6.61797 186.058
lowerback -4.31255 0.864672 -11.1663
upperback 2.96595 1.89109 1.35208
thorax 5.18625 0.520672 7.89127
lowerneck -10.9429 -3.5308 -2.79362
upperneck 23.9503 -5.49542 10.3512
head 9.75576 -1.1353 3.54544
rclavicle 2.38542e-015 5.56597e-015
rhumerus -43.5823 -21.013 -63.2745
rradius 22.4525
rwrist 25.0077
rhand -6.96471 -31.8006
rfingers 7.12502
rthumb 18.9048 -60.9019
lclavicle 2.38542e-015 5.56597e-015
lhumerus -22.0851 -8.04265 76.7075
lradius 21.7632
lwrist -19.8164
lhand -26.1062 -21.8767
lfingers 7.12502
lthumb 0.443165 8.10257
rfemur -18.4898 9.53905 5.90025
rtibia 13.698
rfoot -13.464 -5.7073
rtoes -32.2224
lfemur -14.4888 -9.39807 -11.2934
ltibia 9.76091
lfoot -18.9641 12.7332
ltoes -61.4145
